# xmcd
# Track frame offsets:
# 150
# 12219
# 26014
# 38385
# 50154
# 61249
# 72344
# 86139
# 97084
# 108628
# 121522
# 133668
# 144838
# 157507
# 171151
#
# Disc length: 2413 seconds
# Revision: 0
# Processed by: cddbd v1.5.2PL0 Copyright (c) Steve Scherf et al.
# Submitted via: VisiTrax 2.11.2.271 - For more info visit www.synapsa.com
#
DISCID=be096b0f
DTITLE=Various Artist - Classic Country 1950-1956 Disc 1
DYEAR=2001
DGENRE=Country
TTITLE0=Hank Williams - Long Gone Lonesome Blues
TTITLE1=Red Foley - Birmingham Bounce
TTITLE2=Lefty Frizzell - I Love In A Thousand Ways
TTITLE3=Eddy Arnold - I Really Don't Want To Know
TTITLE4=The Carlisles - No Help Wanted
TTITLE5=Hank Snow - Let Me Go, Lover
TTITLE6=Moon Mulligan - I'll Sail My Ship Alone
TTITLE7=Webb Pierce - There Stands The Glass
TTITLE8=Carl Smith - Loose Talk
TTITLE9=Kitty Wells - Makin' Believe
TTITLE10=Jimmy Heap and The Melody Makers With Perk Williams - Release Me
TTITLE11=Tommy Collins - You Better Not Do That
TTITLE12=Porter Wagoner - A Satisfield Mind
TTITLE13=Stuart Hamblen - I'm The One Who Loves You
TTITLE14=Johnnie and Jack - Goodnight, Sweetheart, Goodnight
EXTD=
EXTT0=
EXTT1=
EXTT2=
EXTT3=
EXTT4=
EXTT5=
EXTT6=
EXTT7=
EXTT8=
EXTT9=
EXTT10=
EXTT11=
EXTT12=
EXTT13=
EXTT14=
PLAYORDER=
